PathFileType	4	(X/Y/Z)	D:\Long Term Storage\D'Arcy Smith\Coord8.trc
DataRate	CameraRate	NumFrames	NumMarkers	Units	OrigDataRate	OrigDataStartFrame	OrigNumFrames
120.00	120.00	      109	4	mm	120.00	3211	      5136
Frame#	Time	M1			M2			M3			M4			
		X1	Y1	Z1	X2	Y2	Z2	X3	Y3	Z3	X4	Y4	Z4	

3211	26.750	1057.98474	327.37836	478.20139	1578.87805	383.12216	332.13992							
3212	26.758	1060.16296	330.36090	462.04059	1579.78784	390.99908	316.67642							
3213	26.767	1061.86255	333.18457	445.88596	1580.98572	399.60229	301.68787							
3214	26.775	1063.29822	336.60669	429.88696	1582.12207	408.62146	287.33664							
3215	26.783	1064.75757	341.13956	413.28690	1583.32825	417.91617	273.81598							
3216	26.792	1066.64063	346.15463	393.39352	1584.88611	427.37360	261.32379							
3217	26.800	1068.08875	352.15842	378.18289	1585.89136	436.16843	250.48378							
3218	26.808	1069.34131	359.09735	361.89362	1587.35242	445.32446	240.62627							
3219	26.817	1070.26123	366.43793	346.62775	1589.16565	454.09909	231.77161							
3220	26.825	1071.69775	374.54221	331.00873	1591.25513	462.20877	224.18442							
3221	26.833	1072.68323	382.98770	316.55276	1593.35767	469.75769	217.68019							
3222	26.842	1072.86963	391.06985	303.56003	1595.61365	476.38681	212.36908							
3223	26.850	1073.65613	399.86954	290.42056	1597.68652	482.03622	208.11746							
3224	26.858	1074.37451	408.53412	278.23709	1599.93335	486.85727	204.94020							
3225	26.867	1074.76233	417.20908	266.66260	1602.03308	490.67279	202.61772							
3226	26.875	1075.64160	426.06659	253.01598	1604.20898	493.40955	201.36844							
3227	26.883	1075.64612	433.88123	244.33542	1606.28955	495.09366	200.93787							
3228	26.892	1075.54407	441.16373	236.07149	1608.23718	495.65903	201.13876							
3229	26.900	1075.20605	447.76151	228.94559	1610.30469	495.21832	201.97984							
3230	26.908	1074.65527	453.45645	222.89128	1612.24963	493.80225	203.46091							
3231	26.917	1074.00684	457.71829	218.09386	1614.14575	491.38068	205.49489							
3232	26.925	1073.92273	463.10812	212.82629	1615.83362	487.99133	208.07991							
3233	26.933	1072.70032	465.46887	210.30846	1617.01404	483.51318	211.18518							
3234	26.942	1070.84094	466.58981	208.61539	1618.06470	478.18182	214.77026							
3235	26.950	1069.68250	466.89539	207.60341	1619.00769	472.25671	218.93756							
3236	26.958	1067.61646	465.66559	207.93449	1619.24011	464.95135	223.70152							
3237	26.967	1065.61597	462.99774	209.39285	1619.68909	457.13361	229.73828							
3238	26.975	1063.84875	459.27145	211.62387	1619.88013	449.01154	236.00487							
3239	26.983	1062.18420	454.39877	214.91251	1619.75256	439.96420	243.10287							
3240	26.992	1059.95911	448.17139	219.54546	1620.01208	430.64969	250.81821							
3241	27.000	1058.04858	441.05676	225.08556	1619.45264	420.64105	260.36304							
3242	27.008	1056.11829	432.69617	231.91701	1618.51392	410.11490	271.37286							
3243	27.017	1054.64917	423.93091	239.40906	1617.75891	399.57910	283.96759							
3244	27.025	1053.47522	414.37677	247.84630	1616.83008	389.17178	298.00995							
3245	27.033	1051.36841	403.39429	260.44501	1615.47705	379.12305	313.53925							
3246	27.042	1050.57007	393.01102	270.90100	1614.60559	369.83307	330.36588							
3247	27.050	1050.12463	382.75229	282.16992	1613.49756	361.63306	348.07556							
3248	27.058	1049.98047	372.40186	294.27130	1612.48560	354.63150	366.45670							
3249	27.067	1049.91528	362.32562	307.05792	1611.26184	348.76212	385.07388							
3250	27.075	1050.14282	352.68231	321.03711	1610.16931	343.99155	403.16345							
3251	27.083	1050.52002	343.62289	335.64285	1608.86230	340.33127	420.69058							
3252	27.092	1050.82837	335.39822	351.15515	1607.35779	337.65683	438.08847							
3253	27.100	1051.48096	328.01050	367.04654	1605.52087	335.62421	453.66095							
3254	27.108	1052.48645	321.68341	383.35217	1604.01343	334.52457	468.08563							
3255	27.117	1053.44751	316.49750	399.18958	1602.37537	333.96982	481.25964							
3256	27.125	1053.92908	312.69296	418.21091	1600.69165	334.06754	493.53363							
3257	27.133	1054.87598	310.10638	435.19070	1600.13940	334.14612	504.64169							
3258	27.142	1057.15356	308.99591	449.04910	1598.74036	334.36572	514.82898							
3259	27.150	1057.71191	308.12042	466.09009	1598.65039	336.12274	523.17029							
3260	27.158	1057.91821	308.45441	482.33008	1598.43665	337.83130	530.93323							
3261	27.167	1059.15308	309.44556	497.55994	1598.65027	340.07892	537.39496							
3262	27.175	1059.34448	310.68192	512.60065	1597.19971	341.14249	541.55078							
3263	27.183	1059.68213	313.10278	524.94061	1596.54321	342.57254	544.01831							
3264	27.192	1059.66309	316.09540	538.80103	1596.58862	344.58020	544.61279							
3265	27.200	1058.00574	317.31076	553.12311	1594.99609	344.61487	542.46906							
3266	27.208	1058.80237	320.24744	558.90253	1594.25073	345.17990	538.33704							
3267	27.217	1058.14148	323.03333	566.47217	1593.67358	345.45435	531.95831							
3268	27.225	1057.22339	325.37851	570.68555	1593.30920	345.59024	523.34662							
3269	27.233	1056.24719	328.05655	576.03717	1592.01062	345.39319	512.73175							
3270	27.242	1057.12024	329.83014	571.24884	1592.12219	345.83917	500.17142							
3271	27.250	1056.38464	331.23349	569.70941	1592.39111	347.04373	486.44278							
3272	27.258	1055.77686	331.93863	564.69440	1592.43982	348.45282	470.71091							
3273	27.267	1054.62524	332.22824	557.13660	1592.71899	350.71915	453.51810							
3274	27.275	1053.78833	332.59573	548.27698	1592.96606	353.75330	435.39212							
3275	27.283	1051.90405	332.52872	538.07800	1593.34790	357.63089	415.94385							
3276	27.292	1051.85498	333.38474	524.78229	1593.40002	362.31464	396.66483							
3277	27.300	1051.17566	334.16473	509.34787	1593.71082	368.24011	377.28659							
3278	27.308	1050.34534	335.72903	492.98294	1594.23291	375.08643	358.05777							
3279	27.317	1049.24866	338.05389	476.46960	1594.62891	382.78677	339.12076							
3280	27.325	1048.28101	341.10373	459.28485	1595.45630	391.49496	320.81003							
3281	27.333	1048.02283	344.54370	443.77777	1595.74976	400.63831	303.29425							
3282	27.342	1047.74670	348.95886	425.49905	1595.96216	410.48904	286.76782							
3283	27.350	1047.94495	353.82437	406.58838	1595.50317	420.35333	271.61395							
3284	27.358	1047.91833	359.99509	388.91052	1595.16272	430.39188	257.65030							
3285	27.367	1048.01062	366.77460	371.51587	1594.66565	440.60641	245.72043							
3286	27.375	1048.27441	373.97723	354.81546	1595.25159	450.31741	235.10306							
3287	27.383	1048.80505	381.81067	338.41586	1594.82617	459.43506	225.60687							
3288	27.392	1049.31567	389.67352	322.64166	1594.37903	467.97205	217.64116							
3289	27.400	1050.35315	398.10669	307.52930	1594.24585	475.59665	211.17722							
3290	27.408	1051.38977	406.57797	292.93240	1593.91162	482.28784	206.01912							
3291	27.417	1052.38477	414.79694	279.62640	1593.61633	487.88931	202.19260							
3292	27.425	1053.43860	422.94083	267.03046	1593.55261	492.47025	199.69456							
3293	27.433	1055.20593	431.39078	252.64833	1593.57617	495.94952	198.25352							
3294	27.442	1056.28357	438.57401	242.51462	1593.69971	498.40567	197.84023							
3295	27.450	1058.50598	446.53848	232.93367	1593.73999	499.66812	198.18433							
3296	27.458	1058.76453	452.10129	225.92920	1594.05164	499.91669	199.28860							
3297	27.467	1059.21667	456.76743	220.41428	1594.30457	499.28400	201.06516							
3298	27.475	1059.14319	459.90295	216.88184	1594.53845	497.48734	203.07707							
3299	27.483	1058.86499	461.45908	214.48404	1594.72144	494.85992	205.70888							
3300	27.492	1058.37439	461.84418	213.87202	1595.01111	491.20114	208.77737							
3301	27.500	1057.49402	461.28281	214.48677	1594.92505	486.62012	212.10315							
3302	27.508	1056.85229	458.81418	216.86038	1595.03467	481.23819	215.89944							
3303	27.517	1055.01013	454.60355	220.70531	1594.90930	475.07706	220.19170							
3304	27.525	1053.42322	449.36734	225.49290	1594.66235	467.99374	225.02222							
3305	27.533	1051.78137	442.95139	231.52231	1594.39221	460.15161	230.46518							
3306	27.542	1050.06921	435.36700	238.79994	1594.07434	451.64066	236.83994							
3307	27.550	1048.50305	427.72855	246.57918	1592.93298	442.22021	243.89119							
3308	27.558	1047.42615	419.64243	253.91260	1592.61316	432.21255	251.89757							
3309	27.567	1045.74146	410.27829	266.59949	1592.52136	422.09286	260.83151							
3310	27.575	1044.94592	401.14673	276.39713	1592.53503	411.40497	271.51279							
3311	27.583	1043.69080	391.09338	287.61148	1592.44653	400.45859	283.44391							
3312	27.592	1043.23218	381.65466	298.34912	1592.27258	389.63672	296.62201							
3313	27.600	1043.02502	372.06421	309.59695	1592.32056	378.91647	311.01382							
3314	27.608	1043.16199	362.41470	321.33878	1592.01257	368.58606	326.79929							
3315	27.617	1043.43994	352.91846	333.61823	1591.99854	358.89612	343.83456							
3316	27.625	1043.82971	343.73380	346.52768	1592.32715	350.18777	362.07605							
3317	27.633	1044.34229	334.89264	360.48468	1593.18567	342.75430	381.38815							
3318	27.642	1045.01965	326.90027	375.31161	1593.79529	336.47891	401.55807							
3319	27.650	1045.43408	319.42020	390.91064	1594.56555	332.07053	423.14316							
